# xmcd
#
# Track frame offsets:
#	150
#	7720
#	30054
#	50059
#	71970
#	90155
#	112926
#	120751
#	142400
#	162573
#	182270
#	197692
#	222754
#	241497
#
# Disc length: 3500 seconds
#
# Revision: 0
# Processed by: cddbd v1.5.1PL0 Copyright (c) Steve Scherf et al.
# Submitted via: dBpowerAMP V4.0
#
DISCID=af0daa0e
DTITLE=Dungeon Family - Only In Darkness
DYEAR=1900
DGENRE=
TTITLE0=Presenting Dungeon Family
TTITLE1=Crooked Booty
TTITLE2=Follow The Light
TTITLE3=Trans DF Express
TTITLE4=On and On and On
TTITLE5=Emergency
TTITLE6=Forever Pimpin'
TTITLE7=6 Minutes
TTITLE8=White Gutz
TTITLE9=Rollin'
TTITLE10=They Comin'
TTITLE11=Excalibur
TTITLE12=What Is Rap?
TTITLE13=Curtains
EXTD=
EXTT0=
EXTT1=
EXTT2=
EXTT3=
EXTT4=
EXTT5=
EXTT6=
EXTT7=
EXTT8=
EXTT9=
EXTT10=
EXTT11=
EXTT12=
EXTT13=
PLAYORDER=
